# xmcd
# 
# Track frame offsets:
#     183
#     25580
#     46065
#     70608
#     89513
#     143488
#     164258
# 
# Disc length: 2370
# 
# Revision: 50
# Processed by: cddbd v1.5.2PL0 Copyright (c) Steve Scherf et al.
# Submitted via: fre:ac v1.1beta1pre2
# 
DISCID=4b094007
DTITLE=Pink Floyd - A Saucerful Of Secrets
DYEAR=1968
DGENRE=Psychedelic Rock
TTITLE0=Let There Be More Light
TTITLE1=Remember A Day
TTITLE2=Set The Controls For The Heart Of The Sun
TTITLE3=Corporal Clegg
TTITLE4=A Saucerful Of Secrets
TTITLE5=See-Saw
TTITLE6=Jugband Blues
EXTD=Norman Smith
EXTT0=Roger Waters
EXTT1=Rick Wright
EXTT2=Roger Waters
EXTT3=Roger Waters
EXTT4=Syd Barrett
EXTT5=Rick Wright
EXTT6=Syd Barrett
PLAYORDER=
